<?xml version="1.0" encoding="UTF-8" standalone="no"?>
<!DOCTYPE svg PUBLIC "-//W3C//DTD SVG 1.1//EN" "http://www.w3.org/Graphics/SVG/1.1/DTD/svg11.dtd">
<svg width="100%" height="100%" viewBox="0 0 4284 1692" version="1.1" xmlns="http://www.w3.org/2000/svg" xmlns:xlink="http://www.w3.org/1999/xlink" xml:space="preserve" xmlns:serif="http://www.serif.com/" style="fill-rule:evenodd;clip-rule:evenodd;stroke-linejoin:round;stroke-miterlimit:2;">
    <g transform="matrix(2,0,0,2,-9.09495e-13,0)">
        <g id="ORIGINAL" transform="matrix(0.752577,0,0,0.528487,4.54747e-13,0)">
            <rect x="0" y="0" width="2845.83" height="1600" style="fill:none;"/>
            <g id="YELLOW" transform="matrix(2.76827,0,0,3.94207,-471.987,-707.807)">
                <g transform="matrix(1,0,0,1,986.553,205.205)">
                    <path d="M0,108.531C-3.729,108.531 -6.75,105.509 -6.75,101.781L-6.75,6.749C-6.75,3.022 -3.729,0 0,0C3.728,0 6.749,3.022 6.749,6.749L6.749,101.781C6.749,105.509 3.728,108.531 0,108.531" style="fill:rgb(221,189,38);fill-rule:nonzero;"/>
                </g>
                <g transform="matrix(1,0,0,1,1077.44,205.205)">
                    <path d="M0,192.831C-3.729,192.831 -6.75,189.809 -6.75,186.081L-6.75,6.749C-6.75,3.022 -3.729,0 0,0C3.728,0 6.749,3.022 6.749,6.749L6.749,186.081C6.749,189.809 3.728,192.831 0,192.831" style="fill:rgb(221,189,38);fill-rule:nonzero;"/>
                </g>
                <g transform="matrix(1,0,0,1,1168.51,257.081)">
                    <path d="M0,40.956C-3.728,40.956 -6.75,37.934 -6.75,34.206L-6.75,6.75C-6.75,3.022 -3.728,0 0,0C3.729,0 6.75,3.022 6.75,6.75L6.75,34.206C6.75,37.934 3.729,40.956 0,40.956" style="fill:rgb(221,189,38);fill-rule:nonzero;"/>
                </g>
            </g>
            <g id="GREEN" transform="matrix(2.76827,0,0,3.94207,-471.987,-707.807)">
                <g transform="matrix(1,0,0,1,941.111,238.31)">
                    <path d="M0,61.394C-3.729,61.394 -6.75,58.372 -6.75,54.644L-6.75,6.75C-6.75,3.022 -3.729,0 0,0C3.728,0 6.75,3.022 6.75,6.75L6.75,54.644C6.75,58.372 3.728,61.394 0,61.394" style="fill:rgb(10,108,58);fill-rule:nonzero;"/>
                </g>
                <g transform="matrix(1,0,0,1,1031.99,216.606)">
                    <path d="M0,150.696C-3.729,150.696 -6.75,147.674 -6.75,143.946L-6.75,6.75C-6.75,3.022 -3.729,0 0,0C3.728,0 6.749,3.022 6.749,6.75L6.749,143.946C6.749,147.674 3.728,150.696 0,150.696" style="fill:rgb(10,108,58);fill-rule:nonzero;"/>
                </g>
                <g transform="matrix(1,0,0,1,1122.88,238.31)">
                    <path d="M0,128.992C-3.729,128.992 -6.75,125.97 -6.75,122.242L-6.75,6.75C-6.75,3.022 -3.729,0 0,0C3.728,0 6.749,3.022 6.749,6.75L6.749,122.242C6.749,125.97 3.728,128.992 0,128.992" style="fill:rgb(10,108,58);fill-rule:nonzero;"/>
                </g>
            </g>
            <g id="BLUE-STRIPES" serif:id="BLUE STRIPES" transform="matrix(2.76827,0,0,3.94207,-471.987,-707.807)">
                <g transform="matrix(1,0,0,1,963.832,219.539)">
                    <path d="M0,84.962C-3.729,84.962 -6.75,81.94 -6.75,78.212L-6.75,6.75C-6.75,3.022 -3.729,0 0,0C3.728,0 6.749,3.022 6.749,6.75L6.749,78.212C6.749,81.94 3.728,84.962 0,84.962" style="fill:rgb(0,34,90);fill-rule:nonzero;"/>
                </g>
                <g transform="matrix(1,0,0,1,1009.27,196.672)">
                    <path d="M0,130.375C-3.729,130.375 -6.75,127.353 -6.75,123.625L-6.75,6.75C-6.75,3.022 -3.729,0 0,0C3.728,0 6.749,3.022 6.749,6.75L6.749,123.625C6.749,127.353 3.728,130.375 0,130.375" style="fill:rgb(0,34,90);fill-rule:nonzero;"/>
                </g>
                <g transform="matrix(1,0,0,1,1054.71,216.606)">
                    <path d="M0,206.686C-3.729,206.686 -6.75,203.664 -6.75,199.936L-6.75,6.75C-6.75,3.022 -3.729,0 0,0C3.728,0 6.749,3.022 6.749,6.75L6.749,199.936C6.749,203.664 3.728,206.686 0,206.686" style="fill:rgb(0,34,90);fill-rule:nonzero;"/>
                </g>
                <g transform="matrix(1,0,0,1,1145.6,249.232)">
                    <path d="M0,90.9C-3.729,90.9 -6.75,87.878 -6.75,84.15L-6.75,6.749C-6.75,3.022 -3.729,0 0,0C3.728,0 6.749,3.022 6.749,6.749L6.749,84.15C6.749,87.878 3.728,90.9 0,90.9" style="fill:rgb(0,34,90);fill-rule:nonzero;"/>
                </g>
                <g transform="matrix(1,0,0,1,1100.16,226.365)">
                    <path d="M0,148.204C-3.729,148.204 -6.75,145.182 -6.75,141.454L-6.75,6.749C-6.75,3.022 -3.729,0 0,0C3.728,0 6.749,3.022 6.749,6.749L6.749,141.454C6.749,145.182 3.728,148.204 0,148.204" style="fill:rgb(0,34,90);fill-rule:nonzero;"/>
                </g>
            </g>
            <g id="AHAV" transform="matrix(2.76827,0,0,3.94207,-471.987,-707.807)">
                <g transform="matrix(1,0,0,1,386.55,359.914)">
                    <path d="M0,-21.605C1.926,-22.643 4.127,-23.163 6.607,-23.163C10.391,-23.163 13.624,-21.823 16.304,-19.144L20.424,-23.163C18.783,-25.04 16.756,-26.462 14.345,-27.434C11.933,-28.406 9.253,-28.891 6.305,-28.891C2.688,-28.891 -0.571,-28.111 -3.468,-26.553C-6.366,-24.998 -8.635,-22.844 -10.276,-20.099C-11.917,-17.351 -12.738,-14.252 -12.738,-10.803C-12.738,-7.353 -11.917,-4.254 -10.276,-1.507C-8.635,1.239 -6.374,3.393 -3.493,4.948C-0.612,6.506 2.62,7.286 6.205,7.286C8.75,7.286 11.229,6.901 13.641,6.131C16.052,5.36 18.164,4.254 19.972,2.814L19.972,-11.205L13.792,-11.205L13.792,-0.251C11.715,0.954 9.303,1.558 6.557,1.558C4.11,1.558 1.926,1.023 0,-0.049C-1.927,-1.122 -3.435,-2.596 -4.523,-4.473C-5.611,-6.347 -6.156,-8.457 -6.156,-10.803C-6.156,-13.214 -5.611,-15.358 -4.523,-17.233C-3.435,-19.11 -1.927,-20.567 0,-21.605" style="fill:rgb(28,40,88);fill-rule:nonzero;"/>
                </g>
                <g transform="matrix(1,0,0,1,439.331,347.15)">
                    <path d="M0,3.921L-7.637,3.921L-7.637,-10.098L0,-10.098C2.847,-10.098 5.007,-9.494 6.482,-8.289C7.955,-7.082 8.692,-5.358 8.692,-3.113C8.692,-0.871 7.955,0.864 6.482,2.086C5.007,3.31 2.847,3.921 0,3.921M13.34,3.72C14.63,1.811 15.275,-0.468 15.275,-3.113C15.275,-5.694 14.671,-7.921 13.465,-9.796C12.26,-11.673 10.526,-13.113 8.266,-14.119C6.005,-15.122 3.349,-15.625 0.302,-15.625L-14.169,-15.625L-14.169,19.546L-7.637,19.546L-7.637,9.296L0.302,9.296C0.904,9.296 1.357,9.279 1.659,9.247L8.843,19.546L15.877,19.546L7.789,7.991C10.2,7.054 12.05,5.629 13.34,3.72" style="fill:rgb(28,40,88);fill-rule:nonzero;"/>
                </g>
                <g transform="matrix(1,0,0,1,496.007,347.605)">
                    <path d="M0,3.515C0,10.416 -2.965,13.866 -8.894,13.866C-14.856,13.866 -17.837,10.416 -17.837,3.515L-17.837,-16.08L-24.37,-16.08L-24.37,3.768C-24.37,8.859 -23.013,12.769 -20.299,15.5C-17.586,18.231 -13.8,19.595 -8.944,19.595C-4.087,19.595 -0.311,18.231 2.387,15.5C5.082,12.769 6.432,8.859 6.432,3.768L6.432,-16.08L0,-16.08L0,3.515Z" style="fill:rgb(28,40,88);fill-rule:nonzero;"/>
                </g>
                <g transform="matrix(1,0,0,1,542.283,349.01)">
                    <path d="M0,0.201C-1.475,1.406 -3.635,2.009 -6.482,2.009L-14.119,2.009L-14.119,-11.958L-6.482,-11.958C-3.635,-11.958 -1.475,-11.354 0,-10.15C1.473,-8.943 2.21,-7.218 2.21,-4.973C2.21,-2.731 1.473,-1.006 0,0.201M1.784,-15.979C-0.478,-16.982 -3.133,-17.485 -6.18,-17.485L-20.651,-17.485L-20.651,17.686L-14.119,17.686L-14.119,7.537L-6.18,7.537C-3.133,7.537 -0.478,7.034 1.784,6.031C4.044,5.025 5.777,3.577 6.983,1.683C8.189,-0.209 8.793,-2.429 8.793,-4.973C8.793,-7.554 8.189,-9.781 6.983,-11.656C5.777,-13.533 4.044,-14.973 1.784,-15.979" style="fill:rgb(28,40,88);fill-rule:nonzero;"/>
                </g>
                <g transform="matrix(1,0,0,1,572.229,349.112)">
                    <path d="M0,-0.001C0,-2.346 0.535,-4.463 1.608,-6.357C2.679,-8.249 4.154,-9.724 6.029,-10.778C7.905,-11.834 10.015,-12.361 12.36,-12.361C14.705,-12.361 16.815,-11.834 18.691,-10.778C20.567,-9.724 22.04,-8.249 23.113,-6.357C24.184,-4.463 24.72,-2.346 24.72,-0.001C24.72,2.345 24.184,4.464 23.113,6.356C22.04,8.248 20.567,9.722 18.691,10.777C16.815,11.832 14.705,12.359 12.36,12.359C10.015,12.359 7.905,11.832 6.029,10.777C4.154,9.722 2.679,8.248 1.608,6.356C0.535,4.464 0,2.345 0,-0.001M12.36,18.088C15.944,18.088 19.177,17.308 22.057,15.75C24.938,14.194 27.2,12.041 28.841,9.295C30.482,6.547 31.303,3.449 31.303,-0.001C31.303,-3.45 30.482,-6.549 28.841,-9.297C27.2,-12.042 24.938,-14.196 22.057,-15.751C19.177,-17.31 15.944,-18.089 12.36,-18.089C8.776,-18.089 5.543,-17.31 2.663,-15.751C-0.218,-14.196 -2.479,-12.035 -4.121,-9.272C-5.762,-6.507 -6.583,-3.418 -6.583,-0.001C-6.583,3.417 -5.762,6.505 -4.121,9.27C-2.479,12.033 -0.218,14.194 2.663,15.75C5.543,17.308 8.776,18.088 12.36,18.088" style="fill:rgb(28,40,88);fill-rule:nonzero;"/>
                </g>
                <g transform="matrix(1,0,0,1,592.589,571.327)">
                    <path d="M0,-189.374L-19.015,-189.374C-24.223,-189.374 -28.445,-185.152 -28.445,-179.944L-28.445,-75.749L-123.132,-75.749L-123.132,-179.944C-123.132,-185.152 -127.354,-189.374 -132.562,-189.374L-151.577,-189.374C-156.785,-189.374 -161.007,-185.152 -161.007,-179.944L-161.007,-9.43C-161.007,-4.222 -156.785,0 -151.577,0L-132.562,0C-127.354,0 -123.132,-4.222 -123.132,-9.43L-123.132,-37.874L-28.445,-37.874L-28.445,-9.43C-28.445,-4.222 -24.223,0 -19.015,0L0,0C5.208,0 9.43,-4.222 9.43,-9.43L9.43,-179.944C9.43,-185.152 5.208,-189.374 0,-189.374" style="fill:rgb(28,40,88);fill-rule:nonzero;"/>
                </g>
                <g transform="matrix(1,0,0,1,405.069,571.327)">
                    <path d="M0,-189.374L-14.611,-189.374C-24.656,-189.374 -34.29,-185.384 -41.393,-178.281L-213.208,-6.466C-215.594,-4.079 -213.905,0 -210.53,0L-166,0C-163.99,0 -162.063,-0.798 -160.643,-2.219L-32.886,-129.976C-31.932,-130.93 -30.3,-130.254 -30.3,-128.904L-30.3,-75.749L-65.037,-75.749C-67.046,-75.749 -68.973,-74.951 -70.393,-73.53L-93.118,-50.806C-97.89,-46.034 -94.51,-37.874 -87.762,-37.874L-30.3,-37.874L-30.3,-7.575C-30.3,-3.392 -26.908,0 -22.725,0L0,0C4.184,0 7.575,-3.392 7.575,-7.575L7.575,-181.799C7.575,-185.982 4.184,-189.374 0,-189.374" style="fill:rgb(28,40,88);fill-rule:nonzero;"/>
                </g>
                <g transform="matrix(1,0,0,1,1000.03,571.327)">
                    <path d="M0,-189.374L-44.531,-189.374C-46.54,-189.374 -48.467,-188.576 -49.888,-187.155L-177.645,-59.398C-178.599,-58.444 -180.23,-59.12 -180.23,-60.47L-180.23,-181.796C-180.23,-185.981 -183.624,-189.374 -187.809,-189.374L-210.527,-189.374C-214.713,-189.374 -218.105,-185.981 -218.105,-181.796L-218.105,-7.574C-218.105,-3.392 -214.714,0 -210.53,0L-195.919,0C-185.874,0 -176.24,-3.99 -169.138,-11.093L2.678,-182.908C5.064,-185.294 3.374,-189.374 0,-189.374" style="fill:rgb(28,40,88);fill-rule:nonzero;"/>
                </g>
                <g transform="matrix(1,0,0,1,552.289,570.315)">
                    <path d="M0,-25.007L-19.847,-5.16C-22.125,-2.883 -20.511,1.013 -17.29,1.013L1.136,1.013C2.023,1.013 2.743,0.293 2.743,-0.594L2.744,-23.87C2.744,-25.303 1.013,-26.02 0,-25.007" style="fill:rgb(28,40,88);fill-rule:nonzero;"/>
                </g>
                <g transform="matrix(1,0,0,1,745.943,571.327)">
                    <path d="M0,-189.374L-14.611,-189.374C-24.656,-189.374 -34.29,-185.384 -41.393,-178.281L-133.284,-86.392C-134.035,-85.641 -134.458,-84.624 -134.461,-83.562L-134.619,-32.128C-134.623,-30.694 -132.889,-29.973 -131.875,-30.987L-32.886,-129.976C-31.932,-130.93 -30.3,-130.254 -30.3,-128.904L-30.3,-75.749L-65.037,-75.749C-67.046,-75.749 -68.973,-74.951 -70.393,-73.53L-93.118,-50.806C-97.89,-46.034 -94.51,-37.874 -87.762,-37.874L-30.3,-37.874L-30.3,-7.575C-30.3,-3.392 -26.908,0 -22.725,0L0,0C4.184,0 7.575,-3.392 7.575,-7.575L7.575,-181.799C7.575,-185.982 4.184,-189.374 0,-189.374" style="fill:rgb(28,40,88);fill-rule:nonzero;"/>
                </g>
            </g>
        </g>
    </g>
</svg>
